<svg width="104" height="98" viewBox="0 0 104 98" fill="none" xmlns="http://www.w3.org/2000/svg">
<g filter="url(#filter0_d_2_13)">
<path fill-rule="evenodd" clip-rule="evenodd" d="M51.9252 85.1496C74.7805 85.1496 93.3084 68.042 93.3084 46.9387C93.3084 25.8354 74.7805 8.72778 51.9252 8.72778C29.0699 8.72778 10.5421 25.8354 10.5421 46.9387C10.5421 68.042 29.0699 85.1496 51.9252 85.1496Z" fill="white"/>
</g>
<path d="M67.0654 37.6919C65.8643 38.1783 64.5844 38.5008 63.2501 38.6574C64.6228 37.9006 65.6705 36.7114 66.1631 35.278C64.8832 35.9826 63.4701 36.4803 61.9642 36.758C60.7489 35.5632 59.0169 34.8232 57.1274 34.8232C53.4615 34.8232 50.5101 37.5707 50.5101 40.9388C50.5101 41.4235 50.5545 41.8895 50.6636 42.3331C45.1586 42.0852 40.2875 39.649 37.0152 35.9379C36.4439 36.8531 36.1088 37.9006 36.1088 39.0283C36.1088 41.1457 37.2897 43.0227 39.05 44.1094C37.9862 44.0908 36.9425 43.8056 36.0583 43.3564C36.0583 43.375 36.0583 43.3993 36.0583 43.4235C36.0583 46.3946 38.3536 48.8625 41.3634 49.431C40.8245 49.5671 40.237 49.6323 39.6274 49.6323C39.2034 49.6323 38.7755 49.6099 38.3738 49.5279C39.2317 51.9492 41.6662 53.7292 44.561 53.787C42.3082 55.4142 39.4477 56.3947 36.351 56.3947C35.808 56.3947 35.2872 56.3723 34.7664 56.3108C37.6995 58.0573 41.1757 59.0545 44.9244 59.0545C57.1092 59.0545 63.7709 49.7348 63.7709 41.6565C63.7709 41.3862 63.7608 41.1252 63.7467 40.8662C65.0609 40.005 66.1651 38.9295 67.0654 37.6919Z" fill="#080809"/>
<defs>
<filter id="filter0_d_2_13" x="0.542053" y="0.727783" width="102.766" height="96.4219" filterUnits="userSpaceOnUse" color-interpolation-filters="sRGB">
<feFlood flood-opacity="0" result="BackgroundImageFix"/>
<feColorMatrix in="SourceAlpha" type="matrix" values="0 0 0 0 0 0 0 0 0 0 0 0 0 0 0 0 0 0 127 0" result="hardAlpha"/>
<feOffset dy="2"/>
<feGaussianBlur stdDeviation="5"/>
<feColorMatrix type="matrix" values="0 0 0 0 0 0 0 0 0 0 0 0 0 0 0 0 0 0 0.1 0"/>
<feBlend mode="normal" in2="BackgroundImageFix" result="effect1_dropShadow_2_13"/>
<feBlend mode="normal" in="SourceGraphic" in2="effect1_dropShadow_2_13" result="shape"/>
</filter>
</defs>
</svg>
